# xmcd CD database file
#
# Track frame offsets:
#	150
#	17207
#	35430
#
# Disc length: 696 seconds
#
# Revision: 2
# Processed by: cddbd v1.5PL3 Copyright (c) Steve Scherf et al.
# Submitted via: CDex 1.51
#
DISCID=1c02b603
DTITLE=PAMELAH - LOOKING FOR THE TRUTH
DYEAR=1995
DGENRE=JPop
TTITLE0=LOOKING FOR THE TRUTH
TTITLE1=DON'T CRY ANYMORE
TTITLE2=LOOKING FOR THE TRUTH (Original Karaoke)
EXTD=YEAR: 1995
EXTT0=
EXTT1=
EXTT2=
PLAYORDER=
